<svg width="24" height="24" xmlns="http://www.w3.org/2000/svg">

 <g>
  <title>Layer 1</title>
  <g stroke="null">
   <path stroke="null" d="m22.36167,9.53233l-20.66635,0c-0.55543,0 -1.00566,0.45023 -1.00566,1.00566l2.01132,10.4086c0,0.55543 0.45023,1.00566 1.00566,1.00566l16.6437,0c0.55543,0 1.00566,-0.45023 1.00566,-1.00566l2.01132,-10.4086c0,-0.55543 -0.45023,-1.00566 -1.00566,-1.00566zm-16.26658,9.12638c0,0.29159 -0.23638,0.52797 -0.52797,0.52797l0,0c-0.29159,0 -0.52797,-0.23638 -0.52797,-0.52797l0,-5.88312c0,-0.29159 0.23638,-0.52797 0.52797,-0.52797l0.00005,0c0.29159,0 0.52797,0.23638 0.52797,0.52797l0,5.88312l-0.00005,0zm3.31868,0c0,0.29159 -0.23638,0.52797 -0.52797,0.52797l0,0c-0.29159,0 -0.52797,-0.23638 -0.52797,-0.52797l0,-5.88312c0,-0.29159 0.23638,-0.52797 0.52797,-0.52797l0.00005,0c0.29154,0 0.52797,0.23638 0.52797,0.52797l0,5.88312l-0.00005,0zm3.11755,0c0,0.29159 -0.23638,0.52797 -0.52797,0.52797l0,0c-0.29159,0 -0.52797,-0.23638 -0.52797,-0.52797l0,-5.88312c0,-0.29159 0.23638,-0.52797 0.52797,-0.52797l0.00005,0c0.29154,0 0.52797,0.23638 0.52797,0.52797l0,5.88312l-0.00005,0zm3.2684,0c0,0.29159 -0.23638,0.52797 -0.52797,0.52797s-0.52797,-0.23638 -0.52797,-0.52797l0,-5.88312c0,-0.29159 0.23638,-0.52797 0.52797,-0.52797s0.52797,0.23638 0.52797,0.52797l0,5.88312zm3.2684,0c0,0.29159 -0.23638,0.52797 -0.52797,0.52797s-0.52797,-0.23638 -0.52797,-0.52797l0,-5.88312c0,-0.29159 0.23638,-0.52797 0.52797,-0.52797s0.52797,0.23638 0.52797,0.52797l0,5.88312z"/>
   <path stroke="null" d="m20.10371,4.47264c-0.15286,-1.28574 -1.26618,-2.36984 -2.54734,-2.51516c-0.35641,-0.0262 -1.52529,-0.02016 -2.31478,-0.0175c-0.05033,-0.50841 -0.47905,-0.9055 -1.00063,-0.9055l-4.37463,0c-0.52229,0 -0.95136,0.39819 -1.00068,0.90756c-0.96317,-0.0085 -2.49892,-0.03987 -3.03579,0.18338c-0.9589,0.35802 -1.71013,1.244 -1.86249,2.26224c-0.23331,1.46268 -0.47261,2.92492 -0.69944,4.38926c0.33795,0.00146 0.6758,0.008 1.01371,-0.00106c0.22778,-1.38982 0.444,-2.78116 0.67078,-4.17098c0.09202,-0.82464 0.80252,-1.52056 1.61509,-1.63973c0.34881,-0.03107 1.55445,-0.01991 2.32685,-0.01725c0.11268,0.43218 0.50449,0.75158 0.97197,0.75158l4.37463,0c0.46814,0 0.86034,-0.3203 0.97248,-0.75334c0.70457,0.0006 1.73281,0.00191 1.99699,-0.0006c0.91012,-0.01358 1.77047,0.72257 1.88909,1.62616c0.22934,1.40089 0.4435,2.80429 0.67736,4.20417c0.3369,0.01056 0.6748,-0.00055 1.0122,0.0005c-0.22225,-1.43558 -0.45813,-2.86865 -0.68536,-4.30373z" fill="#020201"/>
  </g>
 </g>
</svg>